<?xml version="1.0" encoding="utf-8"?>
<!-- Generator: Adobe Illustrator 15.1.0, SVG Export Plug-In . SVG Version: 6.00 Build 0)  -->
<!DOCTYPE svg PUBLIC "-//W3C//DTD SVG 1.1//EN" "http://www.w3.org/Graphics/SVG/1.1/DTD/svg11.dtd">
<svg version="1.1" id="Layer_1" xmlns="http://www.w3.org/2000/svg" xmlns:xlink="http://www.w3.org/1999/xlink" x="0px" y="0px"
	 width="297.64px" height="419.531px" viewBox="0 0 297.64 419.531" enable-background="new 0 0 297.64 419.531"
	 xml:space="preserve">
<path d="M148.82,60.945C66.629,60.945,0,127.574,0,209.765s66.629,148.82,148.82,148.82c82.191,0,148.82-66.629,148.82-148.82
	S231.011,60.945,148.82,60.945z M81.956,294.826c-4.874,0-9.036-3.311-10.125-8.045l-7.72-33.479
	c-1.188-4.871,1.33-9.92,5.98-11.913l36.036-15.446c4.246-1.838,9.235-0.603,12.118,2.979l14.63,17.879
	c23.007-11.295,41.703-29.99,52.998-52.984l-17.879-14.649c-3.57-2.917-4.791-7.86-2.984-12.105L180.469,131
	c2.024-4.62,7.036-7.156,11.912-6.021l33.472,7.727c4.733,1.08,8.045,5.243,8.045,10.112
	C233.898,226.595,165.734,294.826,81.956,294.826z"/>
</svg>
