<?xml version="1.0" encoding="utf-8"?>
<!-- Generator: Adobe Illustrator 15.1.0, SVG Export Plug-In . SVG Version: 6.00 Build 0)  -->
<!DOCTYPE svg PUBLIC "-//W3C//DTD SVG 1.1//EN" "http://www.w3.org/Graphics/SVG/1.1/DTD/svg11.dtd">
<svg version="1.1" xmlns="http://www.w3.org/2000/svg" xmlns:xlink="http://www.w3.org/1999/xlink" x="0px" y="0px" width="800px"
	 height="600px" viewBox="0 0 800 600" enable-background="new 0 0 800 600" xml:space="preserve">
<g id="Layer_1" display="none">
	<g display="inline">
		<path fill="none" stroke="#000000" stroke-width="5" stroke-miterlimit="10" d="M466.906,345.259
			c7.31-0.786,9.877-7.268,14.732-12.129c9.943-9.948,21.373-17.61,31.155-27.971c10.072-10.665,15.825-31.474,14.817-47.196
			c-10.797-2.484-21.649,25.446-23.975,33.158c-3.877,12.874-3.618,33.617,3.282,45.564c23.515,40.713,47.639-14.118,59.174-32.155
			c-2.291,17.566-4.55,44.441,19.109,47.678c16.845,2.308,44.979-22.674,48.489-38.784"/>
		<path fill="none" stroke="#000000" stroke-width="5" stroke-miterlimit="10" d="M555.696,281.061
			c-9.815,19.941,38.746-0.36,31.005,16.592C579.08,314.336,562.311,267.621,555.696,281.061z"/>
	</g>
</g>
<g id="Layer_2" display="none">
	<circle display="inline" fill="none" stroke="#009245" stroke-miterlimit="10" cx="439.167" cy="267.659" r="83.748"/>
	<circle display="inline" fill="none" stroke="#009245" stroke-miterlimit="10" cx="567.093" cy="306.834" r="68.673"/>
	<circle display="inline" fill="none" stroke="#009245" stroke-miterlimit="10" cx="501.093" cy="291.834" r="68.673"/>
	<circle display="inline" fill="none" stroke="#009245" stroke-miterlimit="10" cx="229.093" cy="419.834" r="68.673"/>
	<circle display="inline" fill="none" stroke="#009245" stroke-miterlimit="10" cx="208.093" cy="530.834" r="68.673"/>
	<circle display="inline" fill="none" stroke="#009245" stroke-miterlimit="10" cx="518.463" cy="264.43" r="4.316"/>
	<circle display="inline" fill="none" stroke="#009245" stroke-miterlimit="10" cx="171.151" cy="466.118" r="5.628"/>
	<circle display="inline" fill="none" stroke="#009245" stroke-miterlimit="10" cx="191.151" cy="470.118" r="5.628"/>
	<circle display="inline" fill="none" stroke="#009245" stroke-miterlimit="10" cx="636.093" cy="316.834" r="68.673"/>
	<circle display="inline" fill="none" stroke="#009245" stroke-miterlimit="10" cx="571.093" cy="288.834" r="68.673"/>
	<circle display="inline" fill="none" stroke="#009245" stroke-miterlimit="10" cx="528.167" cy="327.834" r="23.573"/>
	<circle display="inline" fill="none" stroke="#009245" stroke-miterlimit="10" cx="561.829" cy="297.054" r="8.385"/>
	<circle display="inline" fill="none" stroke="#009245" stroke-miterlimit="10" cx="578.506" cy="298.613" r="8.385"/>
	<circle display="inline" fill="none" stroke="#009245" stroke-miterlimit="10" cx="592.167" cy="327.834" r="23.573"/>
</g>
<g id="Layer_3" display="none">
	
		<path display="inline" fill="none" stroke="#C87871" stroke-width="3" stroke-linecap="round" stroke-linejoin="round" stroke-miterlimit="10" d="
		M467.993,346.313c14.444-5.563,25.627-12.223,40.041-30.744c14.403-18.507,17.816-53.223,12.191-55.08
		c-7.351-2.427-28.101,30.323-20.232,61.013c8.342,32.536,29.055,33.853,41.225,26.009c12.72-8.198,24.47-25.386,27.205-42.429
		c-6.173,41.605,15.69,51.883,35.942,43.461c11.375-4.73,26.01-21.168,31.158-35.89"/>
	<path display="inline" fill="none" stroke="#C87871" stroke-width="3" stroke-miterlimit="10" d="M586.146,300.646
		c1.37-4.705-2.985-8.087-6.557-7.293c-4.427,0.986-13.579,5.696-16.491,7.67c-4.454,3.012-10.543-1.775-8.57-6.786
		c1.948-4.949,7.578-4.629,9.942-1.65c2.329,2.933,9.351,9.069,12.248,10.874C581.322,306.329,585.173,303.983,586.146,300.646z"/>
</g>
<g id="Layer_4">
	<circle fill="#C87871" cx="427.974" cy="305.399" r="275"/>
	<path fill="none" stroke="#FFFFFF" stroke-width="20" stroke-linecap="round" stroke-linejoin="round" stroke-miterlimit="10" d="
		M208.453,389.507c39.196-15.097,69.542-33.168,108.655-83.428c39.086-50.22,48.347-144.427,33.083-149.466
		c-19.947-6.585-76.255,82.285-54.904,165.565c22.637,88.289,78.843,91.862,111.868,70.577
		c34.516-22.246,66.401-68.887,73.824-115.135c-16.751,112.901,42.577,140.791,97.534,117.936
		c30.867-12.837,70.58-57.441,84.551-97.39"/>
	<path fill="none" stroke="#FFFFFF" stroke-width="20" stroke-miterlimit="10" d="M535.071,237.585
		c3.719-12.768-8.101-21.946-17.792-19.792c-12.013,2.675-36.848,15.456-44.75,20.814c-12.088,8.172-28.61-4.818-23.257-18.414
		c5.287-13.429,20.564-12.562,26.979-4.477c6.32,7.958,25.374,24.61,33.237,29.507C521.983,253.005,532.433,246.64,535.071,237.585z
		"/>
</g>
</svg>
