<?xml version="1.0" encoding="UTF-8" standalone="no"?>
<!DOCTYPE svg PUBLIC "-//W3C//DTD SVG 1.1//EN" "http://www.w3.org/Graphics/SVG/1.1/DTD/svg11.dtd">
<svg width="100%" height="100%" viewBox="0 0 60 60" version="1.1" xmlns="http://www.w3.org/2000/svg" xmlns:xlink="http://www.w3.org/1999/xlink" xml:space="preserve" xmlns:serif="http://www.serif.com/" style="fill-rule:evenodd;clip-rule:evenodd;stroke-linecap:round;stroke-linejoin:round;stroke-miterlimit:10;">
    <g transform="matrix(1.2777,0,0,1.2777,-0.61595,0.00722021)">
        <circle cx="23.974" cy="23.398" r="23.424" style="fill:rgb(200,120,113);"/>
    </g>
    <g transform="matrix(1.2777,0,0,1.2777,-0.61595,0.00722021)">
        <path d="M5.275,30.562C8.613,29.277 11.198,27.737 14.53,23.456C17.859,19.179 18.648,11.154 17.348,10.725C15.649,10.164 10.852,17.734 12.671,24.828C14.599,32.348 19.386,32.652 22.2,30.839C25.14,28.944 27.855,24.972 28.488,21.032C27.061,30.649 32.115,33.025 36.796,31.078C39.425,29.985 42.808,26.184 43.998,22.782" style="fill:none;fill-rule:nonzero;stroke:white;stroke-width:1.7px;"/>
    </g>
    <g transform="matrix(1.2777,0,0,1.2777,-0.61595,0.00722021)">
        <path d="M33.097,17.623C33.413,16.535 32.407,15.753 31.58,15.937C30.557,16.165 28.442,17.253 27.769,17.71C26.739,18.406 25.331,17.299 25.788,16.142C26.238,14.998 27.54,15.072 28.086,15.76C28.624,16.438 30.248,17.857 30.918,18.274C31.981,18.936 32.872,18.394 33.097,17.623Z" style="fill:none;fill-rule:nonzero;stroke:white;stroke-width:1.7px;stroke-linecap:butt;stroke-linejoin:miter;"/>
    </g>
</svg>
