<?xml version="1.0" encoding="utf-8"?>
<!-- Generator: Adobe Illustrator 15.1.0, SVG Export Plug-In . SVG Version: 6.00 Build 0)  -->
<!DOCTYPE svg PUBLIC "-//W3C//DTD SVG 1.1//EN" "http://www.w3.org/Graphics/SVG/1.1/DTD/svg11.dtd">
<svg version="1.1" id="Layer_1" xmlns="http://www.w3.org/2000/svg" xmlns:xlink="http://www.w3.org/1999/xlink" x="0px" y="0px"
	 width="297.64px" height="419.531px" viewBox="0 0 297.64 419.531" enable-background="new 0 0 297.64 419.531"
	 xml:space="preserve">
<path d="M252.723,104.564c-27.808-27.806-64.696-43.1-103.996-43.1c-81.009,0-146.909,65.901-147.001,146.91
	c0,25.952,6.766,51.255,19.648,73.5L0.52,358.065l77.95-20.483c21.411,11.678,45.603,17.888,70.257,17.888
	c81.009,0,148.393-65.9,148.393-146.909C297.12,169.26,280.437,132.371,252.723,104.564z M220.74,260.929
	c-3.059,8.618-17.704,16.404-24.748,17.425c-11.679,1.761-20.762,0.834-44.026-9.177c-36.797-15.943-60.896-53.017-62.748-55.427
	c-1.854-2.41-15.017-19.928-15.017-38.002c0-18.074,9.455-26.972,12.883-30.679c3.338-3.708,7.323-4.634,9.826-4.634
	c2.41,0,4.913,0,7.044,0.092c2.226,0.093,5.283-0.834,8.25,6.303c3.057,7.322,10.38,25.396,11.307,27.25
	c0.928,1.854,1.576,3.986,0.279,6.396c-7.045,14.088-14.553,13.533-10.752,20.021c14.18,24.376,28.362,32.812,49.958,43.657
	c3.707,1.853,5.84,1.574,7.972-0.927c2.131-2.411,9.176-10.752,11.586-14.368c2.408-3.707,4.913-3.058,8.248-1.853
	c3.338,1.204,21.411,10.102,25.118,11.956c3.708,1.854,6.117,2.779,7.046,4.265C223.798,244.986,223.798,252.401,220.74,260.929z"/>
</svg>
